<svg width="774" height="691" viewBox="0 0 774 691" fill="none" xmlns="http://www.w3.org/2000/svg">
<mask id="mask0_23_507" style="mask-type:alpha" maskUnits="userSpaceOnUse" x="65" y="0" width="135" height="142">
<path fill-rule="evenodd" clip-rule="evenodd" d="M65.4062 0H199.538V141.209H65.4062V0Z" fill="white"/>
</mask>
<g mask="url(#mask0_23_507)">
<path fill-rule="evenodd" clip-rule="evenodd" d="M65.4053 70.6042C65.4053 109.606 95.4299 141.209 132.476 141.209C169.514 141.209 199.539 109.606 199.539 70.6042C199.539 31.6097 169.514 -0.000610352 132.476 -0.000610352C95.4299 -0.000610352 65.4053 31.6097 65.4053 70.6042Z" fill="#2B2669"/>
</g>
<path fill-rule="evenodd" clip-rule="evenodd" d="M118.221 156.715C121.206 150.36 123.996 143.926 126.354 137.319C132.286 120.697 130.697 104.13 134.92 87.5081C142.553 57.5238 162.102 29.3149 192.858 17.8931C210.66 11.2788 229.874 8.17586 248.93 8.42724C274.045 8.75717 299.779 15.0808 320.634 28.9143C331.856 36.3612 339.922 44.8922 345.361 54.633C355.755 73.2583 355.553 102.708 341.213 119.362C338.601 122.41 335.519 125.214 334.005 128.891C331.229 135.662 334.505 143.188 337.601 149.833C346.667 169.236 354.792 190.383 350.994 211.341C350.032 216.652 348.181 222.041 344.242 225.866C340.295 229.692 333.848 231.499 328.924 228.945C332.438 236.738 336.004 244.688 336.81 253.14C338.84 274.586 325.178 276.667 306.957 277.987C303.465 272.802 299.966 267.618 296.474 262.433C294.698 266.715 292.937 270.988 291.161 275.269C290.482 276.919 289.714 278.663 288.192 279.652C286.864 280.524 285.177 280.658 283.581 280.76C247.251 283.109 210.743 281.491 174.525 277.893C166.668 277.107 157.11 274.892 155.095 267.524C153.506 261.734 156.647 253.407 150.962 250.988C147.716 257.107 144.47 263.242 141.225 269.362C131.055 267.516 121.295 263.619 112.767 257.987C106.678 253.965 105.365 248.678 105.783 241.616C105.985 238.262 108.387 224.916 112.879 224.075C105.47 225.458 98.5157 218.733 97.2473 211.546C95.9714 204.366 98.7918 197.147 101.821 190.477C106.992 179.118 112.916 168.034 118.221 156.715Z" fill="#352A7C"/>
<path fill-rule="evenodd" clip-rule="evenodd" d="M77.5156 219.911C77.1798 219.911 76.8366 219.777 76.5829 219.518C75.874 218.803 72.0314 211.073 72.5761 201.513C73.1208 192.102 77.5678 184.035 85.7902 177.531L86.4543 177.012C97.1987 168.536 108.301 159.769 118.061 149.793C124.754 142.943 133.275 129.557 131.26 121.223C131.088 120.524 131.491 119.809 132.163 119.62C132.842 119.471 133.513 119.872 133.685 120.579C136.073 130.453 126.44 144.899 119.807 151.678C109.935 161.78 98.7656 170.594 87.954 179.125L87.2974 179.652C66.7413 195.881 78.2617 217.507 78.396 217.711C78.9034 218.214 78.8735 219.007 78.396 219.526C78.1572 219.785 77.8364 219.911 77.5156 219.911Z" fill="#352A7C"/>
<mask id="mask1_23_507" style="mask-type:alpha" maskUnits="userSpaceOnUse" x="332" y="141" width="43" height="81">
<path fill-rule="evenodd" clip-rule="evenodd" d="M332.23 141.813H374.138V221.668H332.23V141.813Z" fill="white"/>
</mask>
<g mask="url(#mask1_23_507)">
<path fill-rule="evenodd" clip-rule="evenodd" d="M365.214 221.668C364.699 221.668 364.222 221.33 364.035 220.796C363.804 220.113 364.14 219.351 364.789 219.107C369.997 217.135 372.153 210.38 371.534 205.03C369.84 190.286 360.954 181.055 351.552 171.283C343.882 163.302 335.943 155.054 332.294 143.553C332.078 142.862 332.429 142.116 333.085 141.888C333.742 141.645 334.451 142.014 334.675 142.721C338.129 153.616 345.852 161.637 353.313 169.406C362.61 179.068 372.22 189.06 374.026 204.708C374.757 211.071 372.064 219.154 365.639 221.59C365.498 221.645 365.356 221.668 365.214 221.668Z" fill="#352A7C"/>
</g>
<path fill-rule="evenodd" clip-rule="evenodd" d="M276.109 227.818L274.602 288.062C274.11 309.216 261.47 320.214 241.698 319.546C224.812 318.973 209.24 309.256 207.688 291.55L214.389 196.868L276.109 227.818Z" fill="#CDD6F2"/>
<path fill-rule="evenodd" clip-rule="evenodd" d="M275.177 257.199C235.132 257.238 209.711 207.121 209.711 207.121L276.378 221.653L275.177 257.199Z" fill="#00023C" fill-opacity="0.18"/>
<path fill-rule="evenodd" clip-rule="evenodd" d="M258.613 229.608C292.025 229.718 319.618 202.011 320.618 173.284L322.587 105.499C323.833 69.49 302.031 38.9401 267.895 36.4342C232.946 33.8734 192.229 61.1868 189.789 97.9738L188.775 152.514C187.984 194.698 218.635 226.677 258.613 229.608Z" fill="#CDD6F2"/>
<path fill-rule="evenodd" clip-rule="evenodd" d="M157.583 145.944C156.583 161.026 167.387 174.106 181.72 175.15C196.046 176.203 208.469 164.821 209.462 149.738C210.462 134.656 199.658 121.576 185.324 120.531C170.998 119.479 158.575 130.854 157.583 145.944Z" fill="#CDD6F2"/>
<path fill-rule="evenodd" clip-rule="evenodd" d="M192.051 156.623C192.051 156.623 193.356 136.819 175.173 138.626L192.051 156.623Z" fill="#00023C" fill-opacity="0.18"/>
<path fill-rule="evenodd" clip-rule="evenodd" d="M199.042 112.442C198.378 103.573 205.392 95.7258 213.346 92.7171C221.299 89.7164 230.007 90.3841 238.446 90.7926C244.609 91.0989 251.749 90.7847 255.517 85.6472C257.636 82.7486 259.77 78.0274 263.009 79.3707C266.374 80.769 264.68 86.5585 266.956 89.5121C268.463 91.4603 271.201 91.5703 273.581 91.5231C283.639 91.2953 293.69 91.0675 303.74 90.8475C303.688 86.8963 303.628 82.945 303.569 79.0015C308.687 80.9261 312.448 86.3464 312.627 92.0651C317.581 94.0212 323.006 96.0007 328.05 94.3275C339.466 90.5098 331.146 68.106 327.438 60.6512C321.125 48.0039 309.538 39.0251 297.092 33.3063C274.88 23.1021 248.675 22.4108 226.381 32.4344C204.086 42.4501 186.216 63.2985 179.993 87.9646C176.74 100.863 177.046 118.672 184.612 128.758C187.454 132.568 198.415 136.747 200.534 124.657C200.788 123.22 200.713 121.798 200.497 120.36C200.102 117.737 199.243 115.105 199.042 112.442Z" fill="#352A7C"/>
<path fill-rule="evenodd" clip-rule="evenodd" d="M231.756 171.575C229.816 174.435 226.757 176.422 223.489 177.247C219.721 178.19 215.714 177.679 212.065 176.304C209.678 175.393 207.357 174.081 205.693 172.062C202.821 168.59 202.627 162.204 203.589 157.883C204.164 155.299 205.581 152.824 207.783 151.513C211.006 149.588 214.513 149.447 218.049 150.138C221.176 150.743 224.339 151.442 227.13 153.044C232.689 156.249 235.651 164.081 232.569 170.193C232.33 170.68 232.054 171.136 231.756 171.575Z" fill="#FAA6DC"/>
<path fill-rule="evenodd" clip-rule="evenodd" d="M208.654 166.451C208.273 166.451 207.885 166.325 207.557 166.074C206.721 165.429 206.542 164.204 207.146 163.332L212.056 156.262C212.668 155.39 213.832 155.202 214.66 155.83C215.488 156.474 215.667 157.708 215.063 158.58L210.161 165.642C209.795 166.176 209.228 166.451 208.654 166.451Z" fill="#FFD0F6"/>
<path fill-rule="evenodd" clip-rule="evenodd" d="M222.856 172.35H222.752C221.722 172.287 220.939 171.36 220.991 170.276L221.461 161.541C221.513 160.457 222.393 159.672 223.423 159.687C224.453 159.75 225.236 160.677 225.184 161.753L224.721 170.496C224.662 171.541 223.841 172.35 222.856 172.35Z" fill="#FFD0F6"/>
<path fill-rule="evenodd" clip-rule="evenodd" d="M214.472 170.14C214.181 170.14 213.89 170.07 213.621 169.928C212.704 169.426 212.338 168.247 212.815 167.281L217.143 158.404C217.613 157.438 218.74 157.069 219.657 157.548C220.575 158.051 220.933 159.229 220.463 160.195L216.128 169.072C215.8 169.748 215.143 170.14 214.472 170.14Z" fill="#FFD0F6"/>
<path fill-rule="evenodd" clip-rule="evenodd" d="M294.788 178.165C296.414 180.561 298.973 182.226 301.712 182.909C304.868 183.695 308.226 183.271 311.285 182.116C313.284 181.354 315.224 180.262 316.62 178.573C319.03 175.659 319.194 170.301 318.388 166.688C317.903 164.528 316.709 162.454 314.874 161.354C312.173 159.744 309.233 159.618 306.271 160.191C303.652 160.702 301.003 161.291 298.667 162.634C294.004 165.321 291.519 171.88 294.101 177.01C294.31 177.403 294.534 177.795 294.788 178.165Z" fill="#FAA6DC"/>
<path fill-rule="evenodd" clip-rule="evenodd" d="M314.141 174.184C313.567 174.184 313 173.909 312.634 173.375L308.53 167.467C307.918 166.587 308.097 165.362 308.933 164.718C309.754 164.074 310.925 164.254 311.537 165.15L315.648 171.065C316.253 171.937 316.074 173.162 315.238 173.807C314.91 174.058 314.522 174.184 314.141 174.184Z" fill="#FFD0F6"/>
<path fill-rule="evenodd" clip-rule="evenodd" d="M302.243 179.124C301.258 179.124 300.437 178.315 300.377 177.27L299.989 169.949C299.93 168.865 300.721 167.938 301.75 167.875C302.922 168.001 303.66 168.653 303.713 169.737L304.108 177.05C304.16 178.134 303.377 179.061 302.347 179.124H302.243Z" fill="#FFD0F6"/>
<path fill-rule="evenodd" clip-rule="evenodd" d="M309.263 177.275C308.591 177.275 307.935 176.883 307.606 176.207L303.98 168.776C303.51 167.81 303.868 166.631 304.786 166.129C305.696 165.657 306.83 166.019 307.293 166.977L310.919 174.416C311.397 175.382 311.031 176.561 310.113 177.063C309.845 177.205 309.554 177.275 309.263 177.275Z" fill="#FFD0F6"/>
<path fill-rule="evenodd" clip-rule="evenodd" d="M272.287 159.815C273.004 160.891 273.757 161.936 274.459 163.012C275.324 164.348 276.025 165.723 276.749 167.136C276.816 167.286 276.794 167.223 276.675 166.94C276.712 167.034 276.749 167.136 276.779 167.223C276.824 167.356 276.869 167.498 276.913 167.631C276.958 167.804 276.995 167.977 277.04 168.158C277.16 168.621 276.928 168.126 277.033 168.024C277.033 168.032 277.033 168.464 277.04 168.472C276.973 168.393 277.189 167.82 277.055 168.26C276.951 168.582 277.383 167.71 277.07 168.158C277.018 168.244 276.958 168.338 276.898 168.425C277.033 168.252 277.018 168.268 276.854 168.48C276.712 168.629 276.578 168.794 276.428 168.935C276.369 168.998 275.764 169.517 276.078 169.273C275.682 169.58 275.264 169.847 274.832 170.098C274.645 170.192 274.459 170.294 274.272 170.396C274.197 170.428 273.459 170.774 273.817 170.616C273.362 170.813 272.892 170.994 272.429 171.166C271.362 171.567 270.534 172.745 270.914 173.979C271.25 175.078 272.436 176.005 273.578 175.573C275.817 174.733 278.137 173.727 279.786 171.858C280.622 170.915 281.278 169.886 281.368 168.574C281.427 167.788 281.271 166.964 281.032 166.21C279.987 162.973 277.876 160.279 276.033 157.506C275.361 156.5 274.138 156.029 273.063 156.689C272.116 157.27 271.608 158.794 272.287 159.815Z" fill="#00023C" fill-opacity="0.18"/>
<mask id="mask2_23_507" style="mask-type:alpha" maskUnits="userSpaceOnUse" x="225" y="104" width="33" height="14">
<path fill-rule="evenodd" clip-rule="evenodd" d="M225.719 104.009H257.9V117.404H225.719V104.009Z" fill="white"/>
</mask>
<g mask="url(#mask2_23_507)">
<path fill-rule="evenodd" clip-rule="evenodd" d="M232.604 104.941C229.627 106.63 226.575 108.068 225.837 112.058C225.203 115.452 227.18 117.675 230.411 117.377C232.418 117.196 234.052 116.088 235.79 115.35C240.469 113.355 245.042 113.252 249.855 114.698C252.407 115.468 255.205 116.379 257.145 112.915C258.525 110.456 257.951 108.932 255.929 107.549C252.698 105.334 248.997 104.714 245.281 104.274C241.013 103.771 236.76 103.96 232.604 104.941Z" fill="#2A0952"/>
</g>
<path fill-rule="evenodd" clip-rule="evenodd" d="M264.315 195.081C265.972 194.468 267.576 193.934 267.487 191.97C267.404 190.195 265.718 190.116 264.562 189.967C257.57 189.032 252.064 185.23 247.057 180.336C246.02 179.323 244.856 177.885 243.17 178.859C241.775 179.653 241.491 181.067 242.051 182.63C244.707 190.155 257.451 197.17 264.315 195.081Z" fill="#2A0952"/>
<path fill-rule="evenodd" clip-rule="evenodd" d="M219.627 138.65V138.655C219.622 138.655 219.622 138.659 219.616 138.659L219.627 138.65Z" fill="#503890"/>
<path fill-rule="evenodd" clip-rule="evenodd" d="M218.688 131.416C218.635 131.353 218.583 131.298 218.538 131.243C215.949 131.911 213.293 132.265 210.629 132.296C209.689 132.304 208.659 132.241 207.951 131.589C205.585 129.413 210.286 127.056 211.927 127.198C215.36 127.473 219.844 124.103 222.896 126.648C224.09 127.638 224.716 129.177 225.671 130.411C232.029 138.651 246.608 142.752 251.965 141.526C254.659 140.913 260.009 137.237 261.829 141.181C262.919 143.529 261.016 146.617 259.151 147.944C257.666 149.012 255.875 149.523 254.099 149.822C251.458 150.254 248.764 150.277 246.116 149.9C244.25 149.617 239.609 146.609 237.945 148.486C237.348 149.162 237.602 151.078 237.49 151.982C237.259 153.726 236.931 155.462 236.602 157.174C236.289 158.769 236.17 160.929 233.804 160.269C230.618 159.382 231.006 157.473 231.432 154.668C231.842 151.966 232.126 149.256 232.431 146.546C232.79 143.451 231.894 143.961 229.656 142.382C227.305 140.741 226.313 141.503 224.627 143.294C222.56 145.478 219.814 146.86 217.352 148.494C214.882 150.144 213.099 149.201 212.01 147.104C211.189 145.517 212.442 143.844 214.226 142.359C216.218 140.694 218.874 139.248 220.008 138.384C223.321 135.847 220.642 133.616 218.688 131.416Z" fill="#2A0952"/>
<path fill-rule="evenodd" clip-rule="evenodd" d="M307.91 111.585C310.537 113.07 313.215 114.343 313.872 117.846C314.431 120.831 312.685 122.795 309.843 122.536C308.074 122.363 306.634 121.397 305.112 120.745C300.986 118.993 296.964 118.899 292.726 120.171C290.48 120.847 288.018 121.648 286.309 118.6C285.101 116.44 285.601 115.097 287.376 113.879C290.227 111.931 293.48 111.389 296.755 110.996C300.508 110.556 304.254 110.729 307.91 111.585Z" fill="#2A0952"/>
<path fill-rule="evenodd" clip-rule="evenodd" d="M319.332 141.25C319.332 141.254 319.332 141.254 319.332 141.259H319.343L319.332 141.25Z" fill="#503890"/>
<mask id="mask3_23_507" style="mask-type:alpha" maskUnits="userSpaceOnUse" x="281" y="129" width="50" height="32">
<path fill-rule="evenodd" clip-rule="evenodd" d="M281.913 129.848H330.187V160.388H281.913V129.848Z" fill="white"/>
</mask>
<g mask="url(#mask3_23_507)">
<path fill-rule="evenodd" clip-rule="evenodd" d="M320.163 134.883C320.208 134.836 320.253 134.781 320.297 134.734C322.573 135.323 324.909 135.638 327.259 135.669C328.087 135.677 328.99 135.622 329.617 135.048C331.698 133.124 327.557 131.058 326.11 131.168C323.095 131.419 319.148 128.45 316.455 130.689C315.41 131.561 314.858 132.912 314.022 134.004C308.426 141.254 295.585 144.868 290.87 143.792C288.497 143.242 283.789 140.005 282.192 143.485C281.237 145.551 282.901 148.261 284.542 149.44C285.856 150.382 287.43 150.822 288.997 151.089C291.317 151.466 293.69 151.49 296.025 151.152C297.66 150.909 301.748 148.253 303.211 149.911C303.741 150.5 303.517 152.189 303.614 152.998C303.815 154.522 304.106 156.046 304.397 157.562C304.666 158.96 304.77 160.861 306.859 160.28C309.665 159.502 309.322 157.821 308.941 155.347C308.583 152.982 308.337 150.587 308.061 148.198C307.755 145.48 308.538 145.92 310.516 144.538C312.575 143.092 313.448 143.768 314.933 145.339C316.753 147.264 319.171 148.473 321.335 149.919C323.513 151.372 325.08 150.539 326.043 148.701C326.766 147.295 325.655 145.834 324.088 144.522C322.334 143.053 319.999 141.781 318.999 141.019C316.089 138.788 318.447 136.824 320.163 134.883Z" fill="#2A0952"/>
</g>
<path fill-rule="evenodd" clip-rule="evenodd" d="M117.071 649.748V691L193.701 676.437L199.147 621.974L117.071 649.748Z" fill="#974CCD"/>
<path fill-rule="evenodd" clip-rule="evenodd" d="M497.694 400.345C497.694 400.345 546.29 411.633 579.889 445.608L517.169 429.889L497.694 400.345Z" fill="#C4B8EE"/>
<path fill-rule="evenodd" clip-rule="evenodd" d="M349.815 488.327C344.316 476.104 334.489 461.359 338.682 448.021C342.226 436.74 352.814 427.526 362.357 422.043C370.975 417.078 380.66 413.818 390.487 413.999C414.333 414.462 417.31 430.865 426.137 449.961C429.764 457.817 433.524 465.303 437.508 471.854C441.47 478.374 445.582 484.085 449.245 487.895C451.051 489.804 452.722 491.187 453.946 492.137C455.184 493.064 455.96 493.441 456.296 493.637C456.46 493.724 456.542 493.779 456.804 493.959L456.445 493.983L455.729 494.03C453.752 494.219 452.357 494.494 451.073 494.831C450.514 494.981 449.976 495.138 449.484 495.311C449.081 495.436 448.604 495.633 448.275 495.751C446.88 496.332 446.231 496.732 445.88 496.968C445.537 497.196 445.552 497.235 445.686 497.164C445.835 497.086 446.119 496.921 446.507 496.63C448.081 495.483 450.678 493.15 453.327 490.534C455.998 487.871 466.28 500.527 469.122 497.29C474.883 490.841 480.673 483.653 486.507 476.332C509.787 446.811 549.265 367.557 549.265 367.557L599.309 398.712C598.257 401.312 597.287 403.645 596.257 406.073C595.235 408.484 594.228 410.896 593.168 413.26C591.079 418.029 588.923 422.734 586.721 427.44C582.327 436.827 577.723 446.104 572.948 455.326C563.367 473.755 553.093 491.862 541.565 509.812C535.797 518.83 529.649 527.714 522.815 536.764C519.352 541.265 515.696 545.79 511.615 550.432C507.481 555.098 503.049 559.82 496.976 564.949C495.469 566.23 493.79 567.557 491.932 568.916C490.066 570.283 488.037 571.673 485.56 573.135C483.09 574.58 480.247 576.096 476.576 577.534C475.688 577.895 474.629 578.264 473.644 578.594C472.577 578.94 471.458 579.27 470.309 579.576C467.846 580.189 465.265 580.715 462.071 580.982L460.907 581.069L460.072 581.116L459.191 581.147L457.408 581.194C456.229 581.241 455.035 581.194 453.841 581.178C451.461 581.116 449.074 580.943 446.701 580.66C441.955 580.102 437.27 579.112 432.8 577.769C423.832 575.075 415.796 571.006 408.879 566.45C401.94 561.886 396.083 556.787 390.905 551.634C380.63 541.249 372.967 530.597 366.446 519.992C359.94 509.388 354.545 498.861 349.815 488.327Z" fill="#9287C0"/>
<path fill-rule="evenodd" clip-rule="evenodd" d="M549.359 407.578C556.701 417.995 569.169 422.857 581.324 420.752C587.114 419.746 593.822 417.798 600.619 414.161C605.327 411.64 611.147 407.138 615.251 407.618C625.443 408.78 629.159 401.373 631.748 400.689C634.158 401.915 637.561 402.991 641.732 402.504C647.037 401.907 651.439 399.872 654.013 398.395H654.028C664.168 398.262 673.017 398.67 675.875 396.573C681.59 392.386 687.149 351.326 677.412 349.629C664.519 347.39 671.07 377.665 659.296 383.399C659.296 383.399 668.152 345.12 653.64 342.292C643.731 340.367 642.149 378.537 631.614 385.45C631.614 385.45 641.597 349.99 630.89 344.303C620.183 338.616 620.213 381.365 609.282 382.472C607.051 382.685 618.146 352.19 605.312 350.54C592.479 348.898 599.649 385.34 561.708 384.515C546.338 384.185 540.1 394.428 549.359 407.578Z" fill="#9287C0"/>
<path fill-rule="evenodd" clip-rule="evenodd" d="M423.867 388.938H701.401C708.505 388.938 714.265 382.881 714.265 375.395C714.265 367.916 708.505 361.852 701.401 361.852H423.867C416.764 361.852 411.004 367.916 411.004 375.395C411.004 382.881 416.764 388.938 423.867 388.938Z" fill="#8A60E2"/>
<path fill-rule="evenodd" clip-rule="evenodd" d="M493.639 388.938H703.819C708.788 388.938 713.302 385.89 715.369 381.137L772.829 249.024C776.687 240.179 770.539 230.092 761.287 230.092H551.099C546.13 230.092 541.623 233.14 539.549 237.893L482.089 369.998C478.239 378.859 484.387 388.938 493.639 388.938Z" fill="#432C82"/>
<path fill-rule="evenodd" clip-rule="evenodd" d="M641.44 285.727C645.685 294.926 651.236 302.64 657.198 310.04C658.452 311.595 658.72 312.577 656.847 313.928C650.326 318.649 645.155 324.816 640.873 331.76C639.582 333.85 638.739 333.763 637.507 331.972C632.21 324.203 626.532 316.811 619.6 310.551C617.28 308.453 619.205 307.11 620.801 306.002C628.599 300.621 634.657 293.292 641.44 285.727Z" fill="#FF67FF"/>
<path fill-rule="evenodd" clip-rule="evenodd" d="M275.08 264.121C330.155 271.633 355.199 316.83 374.884 342.831C394.977 369.39 475.717 481.597 475.717 481.597C475.717 481.597 486.163 453.381 502.705 409.822L572.835 444.622C567.798 478.086 562.254 515.03 559.71 532.579C554.457 568.785 540.467 643.09 480.395 643.09C464.883 643.09 352.544 522.917 352.544 522.917V675.29H322.397L303.329 419.272C283.719 315.732 274.303 264.015 275.08 264.121Z" fill="#974CCD"/>
<path fill-rule="evenodd" clip-rule="evenodd" d="M183.763 263.696L193.701 676.437L322.395 675.29C322.395 675.29 335.774 454.308 323.253 396.476C309.472 332.816 283.969 265.73 283.969 265.73L274.985 263.695C272.157 281.48 234.321 301.394 205.453 256.791L183.763 263.696Z" fill="#FFB700"/>
<path fill-rule="evenodd" clip-rule="evenodd" d="M199.147 558.044H331.863C331.893 561.006 331.893 563.842 331.863 566.536H199.744L199.147 558.044Z" fill="#EFF2F9"/>
<path fill-rule="evenodd" clip-rule="evenodd" d="M200.783 258.28C200.783 258.28 140.122 275.381 116.41 296.63C92.6975 317.871 39.7962 443.37 20.5533 496.339C-6.93447 572.018 -21.82 689.669 76.0512 671.61C173.922 653.55 189.531 648.248 189.531 648.248V596.724L225.883 580.251L230.935 419.85L200.783 258.28Z" fill="#974CCD"/>
<path fill-rule="evenodd" clip-rule="evenodd" d="M207.599 540.952C207.599 540.952 223.373 590.638 212.934 638.438L193.527 573.717L207.599 540.952Z" fill="#C4B8EE"/>
<path fill-rule="evenodd" clip-rule="evenodd" d="M290.255 559.847C284.382 539.674 264.095 528.315 244.927 534.498L243.889 534.835L219.991 542.549C211.94 545.134 203.889 547.655 195.838 550.091C191.354 551.489 186.884 552.746 182.408 554.066C180.087 583.791 179.423 613.924 183.728 643.288C187.974 641.756 192.294 640.287 196.472 638.7C204.971 635.401 213.38 631.968 221.699 628.464C230.011 624.922 238.249 621.285 246.441 617.522L258.685 611.74L271.034 605.605C287.121 597.64 295.619 578.245 290.255 559.847Z" fill="#CDD6F2"/>
<path fill-rule="evenodd" clip-rule="evenodd" d="M247.92 552.729C247.92 552.729 246.748 536.939 257.112 528.95C267.483 520.953 298.389 500.176 305.111 493.726C311.827 487.285 318.355 499.704 310.148 511.33C301.94 522.964 295.919 530.27 295.919 530.27C295.919 530.27 321.758 511.566 334.144 504.111C346.522 496.649 362.213 483.828 366.966 487.426C371.712 491.016 362.885 505.8 329.234 527.418C329.234 527.418 370.287 509.767 376.808 509.06C383.881 508.29 386.299 514.999 368.854 526.193C351.402 537.387 333.308 546.704 333.308 546.704C333.308 546.704 341.329 542.202 347.373 547.725C353.424 553.255 342.262 562.344 342.262 562.344C342.262 562.344 356.073 568.99 339.904 580.144C323.735 591.291 276.915 602.807 265.051 596.986C253.195 591.158 247.92 552.729 247.92 552.729Z" fill="#CDD6F2"/>
<path fill-rule="evenodd" clip-rule="evenodd" d="M183.762 627.393L165.243 629.522C162.982 599.655 166.571 568.242 168.406 554.997C168.951 551.117 171.772 548.045 175.435 547.322L207.601 540.952C205.893 584.565 210.533 622.381 212.936 638.438C213.623 643.065 210.78 647.448 206.437 648.438L177.278 655.076C172.853 656.081 168.421 653.112 167.578 648.438C166.817 644.235 166.22 639.907 165.765 635.516L183.762 627.393Z" fill="#EA9800"/>
<path fill-rule="evenodd" clip-rule="evenodd" d="M555.895 466.28L548.12 484.112C522.617 470.797 498.852 451.418 489.011 442.965C486.123 440.483 485.071 436.351 486.362 432.674L497.696 400.341C532.354 424.293 565.565 439.532 579.883 445.604C584.009 447.356 586.121 452.18 584.688 456.61L575.123 486.366C573.668 490.875 568.974 493.35 564.729 491.708C560.916 490.247 557.081 488.55 553.268 486.712L555.895 466.28Z" fill="#EA9800"/>
</svg>
